<svg xmlns="http://www.w3.org/2000/svg" viewBox="0 0 64 64" width="50px" height="50px">
  <linearGradient id="TIZHtCnMUiS3rznMpT1gYa" x1="30.5" x2="30.5" y1="35" y2="17" gradientTransform="matrix(1 0 0 -1 0 66)" gradientUnits="userSpaceOnUse">
    <stop offset="0" stop-color="#6dc7ff" />
    <stop offset="1" stop-color="#e6abff" />
  </linearGradient>
  <path fill="url(#TIZHtCnMUiS3rznMpT1gYa)" d="M40,33c0,0-3,1-7,1c-7,0-10-3-10-3s-4,2-4,7c0,7,5.625,11,12,11c6,0,11-3.75,11-10 C42,35,40,33,40,33z M31,46c-3.866,0-7-1.567-7-3.5s3.134-3.5,7-3.5s7,1.567,7,3.5S34.866,46,31,46z" />
  <linearGradient id="TIZHtCnMUiS3rznMpT1gYb" x1="48.5" x2="48.5" y1="40" y2="32" gradientTransform="matrix(1 0 0 -1 0 66)" gradientUnits="userSpaceOnUse">
    <stop offset="0" stop-color="#6dc7ff" />
    <stop offset="1" stop-color="#e6abff" />
  </linearGradient>
  <path fill="url(#TIZHtCnMUiS3rznMpT1gYb)" d="M48.5,26c-1.381,0-2.5,1.791-2.5,4s1.119,4,2.5,4s2.5-1.791,2.5-4S49.881,26,48.5,26z M48,29 c-0.552,0-1-0.448-1-1s0.448-1,1-1s1,0.448,1,1S48.552,29,48,29z" />
  <linearGradient id="TIZHtCnMUiS3rznMpT1gYc" x1="17" x2="17" y1="45.018" y2="35.999" gradientTransform="matrix(1 0 0 -1 0 66)" gradientUnits="userSpaceOnUse">
    <stop offset="0" stop-color="#6dc7ff" />
    <stop offset="1" stop-color="#e6abff" />
  </linearGradient>
  <path fill="url(#TIZHtCnMUiS3rznMpT1gYc)" d="M19.225,21.175c-1.111-0.718-3.008,0.632-4.237,3.016s-1.325,4.898-0.214,5.617 c1.111,0.718,3.008-0.632,4.237-3.016C20.241,24.408,20.337,21.893,19.225,21.175z M18,24c-0.552,0-1-0.448-1-1s0.448-1,1-1 s1,0.448,1,1S18.552,24,18,24z" />
  <linearGradient id="TIZHtCnMUiS3rznMpT1gYd" x1="31.994" x2="31.994" y1="59" y2="9" gradientTransform="matrix(1 0 0 -1 0 66)" gradientUnits="userSpaceOnUse">
    <stop offset="0" stop-color="#6dc7ff" />
    <stop offset="1" stop-color="#e6abff" />
  </linearGradient>
  <path fill="url(#TIZHtCnMUiS3rznMpT1gYd)" d="M34.88,7C18,7,5.989,23,5.989,38c0,11.72,9.967,19,26.011,19c16.523,0,26-6.925,26-19 C58,28.798,49.027,7,34.88,7z M29.5,10c0.828,0,1.5,0.672,1.5,1.5S30.328,13,29.5,13S28,12.328,28,11.5S28.672,10,29.5,10z M32,54 C17.591,54,8.989,48.019,8.989,38c0-10.171,6.279-21.22,16.101-25.806C25.504,13.794,27.32,15,29.5,15c2.485,0,4.5-1.567,4.5-3.5 c0-0.524-0.158-1.016-0.423-1.462C34.008,10.014,34.442,10,34.88,10C46.504,10,55,29.648,55,38C55,51.921,40.59,54,32,54z" />
  <linearGradient id="TIZHtCnMUiS3rznMpT1gYe" x1="30.5" x2="30.5" y1="60.25" y2="7.9" gradientTransform="matrix(1 0 0 -1 0 66)" gradientUnits="userSpaceOnUse">
    <stop offset="0" stop-color="#1a6dff" />
    <stop offset="1" stop-color="#c822ff" />
  </linearGradient>
  <path fill="url(#TIZHtCnMUiS3rznMpT1gYe)" d="M31,50c-6.46,0-13-4.122-13-12c0-5.554,4.367-7.802,4.553-7.895 c0.383-0.193,0.846-0.118,1.15,0.184C23.768,30.351,26.607,33,33,33c3.794,0,6.655-0.939,6.684-0.948 c0.359-0.122,0.756-0.026,1.023,0.241C40.801,32.387,43,34.636,43,39C43,45.374,37.953,50,31,50z M22.92,32.226 C21.948,32.915,20,34.709,20,38c0,6.871,5.702,10,11,10c5.888,0,10-3.701,10-9c0-2.523-0.858-4.13-1.36-4.854 C38.501,34.452,36.034,35,33,35C27.398,35,24.185,33.155,22.92,32.226z" />
  <linearGradient id="TIZHtCnMUiS3rznMpT1gYf" x1="32" x2="32" y1="60.25" y2="7.9" gradientTransform="matrix(1 0 0 -1 0 66)" gradientUnits="userSpaceOnUse">
    <stop offset="0" stop-color="#1a6dff" />
    <stop offset="1" stop-color="#c822ff" />
  </linearGradient>
  <path fill="url(#TIZHtCnMUiS3rznMpT1gYf)" d="M32,58C15.339,58,5,50.337,5,38C5,22.864,17.264,6,34.88,6C49.639,6,59,28.501,59,38 C59,50.71,49.159,58,32,58z M34.88,8C18.443,8,7,23.811,7,38c0,11.103,9.573,18,25,18c15.888,0,25-6.561,25-18 C57,29.348,48.185,8,34.88,8z" />
</svg>